<mxfile host="app.diagrams.net">
  <diagram name="Flowchart Dat Mon An Online" id="flow1">
    <mxGraphModel dx="1136" dy="641" grid="1" gridSize="10" guides="1" tooltips="1" connect="1" arrows="1" fold="1" page="1" pageScale="1" pageWidth="827" pageHeight="1169" math="0" shadow="0">
      <root>
        <mxCell id="0"/>
        <mxCell id="1" parent="0"/>

        <!-- Start -->
        <mxCell id="2" value="Bắt đầu" style="ellipse;whiteSpace=wrap;html=1;" vertex="1" parent="1">
          <mxGeometry x="240" y="40" width="120" height="60" as="geometry"/>
        </mxCell>

        <!-- Step 1 -->
        <mxCell id="3" value="Chọn món ăn từ menu" style="rounded=0;whiteSpace=wrap;html=1;" vertex="1" parent="1">
          <mxGeometry x="240" y="140" width="180" height="60" as="geometry"/>
        </mxCell>

        <!-- Step 2 -->
        <mxCell id="4" value="Xác nhận món ăn trong giỏ hàng" style="rounded=0;whiteSpace=wrap;html=1;" vertex="1" parent="1">
          <mxGeometry x="240" y="240" width="220" height="60" as="geometry"/>
        </mxCell>

        <!-- Step 3 -->
        <mxCell id="5" value="Cung cấp địa chỉ &amp; Thanh toán" style="rounded=0;whiteSpace=wrap;html=1;" vertex="1" parent="1">
          <mxGeometry x="240" y="340" width="220" height="60" as="geometry"/>
        </mxCell>

        <!-- Step 4 -->
        <mxCell id="6" value="Nhận món ăn tại địa chỉ đã cung cấp" style="rounded=0;whiteSpace=wrap;html=1;" vertex="1" parent="1">
          <mxGeometry x="240" y="440" width="260" height="60" as="geometry"/>
        </mxCell>

        <!-- End -->
        <mxCell id="7" value="Kết thúc" style="ellipse;whiteSpace=wrap;html=1;" vertex="1" parent="1">
          <mxGeometry x="240" y="540" width="120" height="60" as="geometry"/>
        </mxCell>

        <!-- Connectors -->
        <mxCell id="8" edge="1" source="2" target="3" style="endArrow=block;" parent="1">
          <mxGeometry relative="1" as="geometry"/>
        </mxCell>

        <mxCell id="9" edge="1" source="3" target="4" style="endArrow=block;" parent="1">
          <mxGeometry relative="1" as="geometry"/>
        </mxCell>

        <mxCell id="10" edge="1" source="4" target="5" style="endArrow=block;" parent="1">
          <mxGeometry relative="1" as="geometry"/>
        </mxCell>

        <mxCell id="11" edge="1" source="5" target="6" style="endArrow=block;" parent="1">
          <mxGeometry relative="1" as="geometry"/>
        </mxCell>

        <mxCell id="12" edge="1" source="6" target="7" style="endArrow=block;" parent="1">
          <mxGeometry relative="1" as="geometry"/>
        </mxCell>

      </root>
    </mxGraphModel>
  </diagram>
</mxfile>